HIERARCHY
ROOT Hips
{
	OFFSET -0.001795 -0.223333 0.028219
	CHANNELS 6 Xposition Yposition Zposition Zrotation Yrotation Xrotation 
	JOINT LeftUpLeg
	{
		OFFSET 0.069520 -0.091406 -0.006815
		CHANNELS 3 Zrotation Yrotation Xrotation
		JOINT LeftLeg
		{
			OFFSET 0.034277 -0.375199 -0.004496
			CHANNELS 3 Zrotation Yrotation Xrotation
			JOINT LeftFoot
			{
				OFFSET -0.013596 -0.397961 -0.043693
				CHANNELS 3 Zrotation Yrotation Xrotation
				JOINT LeftToe
				{
					OFFSET 0.026358 -0.055791 0.119288
					CHANNELS 3 Zrotation Yrotation Xrotation
					End Site
					{
						OFFSET 0.000000 0.000000 0.000000
					}
				}
			}
		}
	}
	JOINT RightUpLeg
	{
		OFFSET -0.067670 -0.090522 -0.004320
		CHANNELS 3 Zrotation Yrotation Xrotation
		JOINT RightLeg
		{
			OFFSET -0.038290 -0.382569 -0.008850
			CHANNELS 3 Zrotation Yrotation Xrotation
			JOINT RightFoot
			{
				OFFSET 0.015774 -0.398415 -0.042312
				CHANNELS 3 Zrotation Yrotation Xrotation
				JOINT RightToe
				{
					OFFSET -0.025372 -0.048144 0.123348
					CHANNELS 3 Zrotation Yrotation Xrotation
					End Site
					{
						OFFSET 0.000000 0.000000 0.000000
					}
				}
			}
		}
	}
	JOINT Spine
	{
		OFFSET -0.002533 0.108963 -0.026696
		CHANNELS 3 Zrotation Yrotation Xrotation
		JOINT Spine1
		{
			OFFSET 0.005487 0.135180 0.001092
			CHANNELS 3 Zrotation Yrotation Xrotation
			JOINT Spine2
			{
				OFFSET 0.001457 0.052922 0.025425
				CHANNELS 3 Zrotation Yrotation Xrotation
				JOINT Neck
				{
					OFFSET -0.002778 0.213870 -0.042857
					CHANNELS 3 Zrotation Yrotation Xrotation
					JOINT Head
					{
						OFFSET 0.005152 0.064970 0.051349
						CHANNELS 3 Zrotation Yrotation Xrotation
						End Site
						{
							OFFSET 0.000000 0.000000 0.000000
						}
					}
				}
				JOINT LeftShoulder
				{
					OFFSET 0.078845 0.121749 -0.034090
					CHANNELS 3 Zrotation Yrotation Xrotation
					JOINT LeftArm
					{
						OFFSET 0.090977 0.030469 -0.008868
						CHANNELS 3 Zrotation Yrotation Xrotation
						JOINT LeftForeArm
						{
							OFFSET 0.259612 -0.012772 -0.027456
							CHANNELS 3 Zrotation Yrotation Xrotation
							JOINT LeftHand
							{
								OFFSET 0.249234 0.008986 -0.001171
								CHANNELS 3 Zrotation Yrotation Xrotation
								End Site
								{
									OFFSET 0.000000 0.000000 0.000000
								}
							}
						}
					}
				}
				JOINT RightShoulder
				{
					OFFSET -0.081759 0.118833 -0.038615
					CHANNELS 3 Zrotation Yrotation Xrotation
					JOINT RightArm
					{
						OFFSET -0.096012 0.032551 -0.009143
						CHANNELS 3 Zrotation Yrotation Xrotation
						JOINT RightForeArm
						{
							OFFSET -0.253742 -0.013329 -0.021401
							CHANNELS 3 Zrotation Yrotation Xrotation
							JOINT RightHand
							{
								OFFSET -0.255298 0.007772 -0.005559
								CHANNELS 3 Zrotation Yrotation Xrotation
								End Site
								{
									OFFSET 0.000000 0.000000 0.000000
								}
							}
						}
					}
				}
			}
		}
	}
}
MOTION
Frames: 10
Frame Time: 0.050000
0.000000 0.940086 0.000000 -0.756911 3.754989 2.097504 6.495047 -0.171521 -0.047930 -3.981257 0.397243 0.167421 4.105344 10.858176 8.648074 0.000000 0.000000 0.000000 -1.974324 0.183229 -1.664631 2.089254 -0.205534 1.700097 -4.629195 -12.990126 9.430542 0.000000 0.000000 0.000000 -1.239194 -0.062433 2.631265 2.943007 -0.058389 -23.550669 -1.947330 -3.449184 28.401938 -0.320283 1.382213 -22.803892 0.000000 0.000000 0.000000 -10.052462 7.224127 -3.643864 -27.028424 -8.570497 -3.005838 24.685920 -15.595929 -2.420660 0.000000 0.000000 0.000000 -0.117430 -2.672611 -0.947950 28.823505 0.665793 -3.992048 -15.985484 11.857369 -0.913667 0.000000 0.000000 0.000000 
0.000584 0.939533 -0.000757 -1.205017 3.910144 2.403513 6.887449 -0.180252 0.322541 -3.856509 0.384619 -1.254935 4.052933 10.754720 8.555300 0.000000 0.000000 0.000000 -1.865541 0.180176 -1.616127 2.722965 -0.299216 0.885060 -4.621954 -12.989007 9.649664 0.000000 0.000000 0.000000 -1.196287 -0.063360 2.633534 3.600795 -0.197243 -23.964331 -1.825329 -2.947653 28.226463 -1.215644 2.049459 -22.904567 0.000000 0.000000 0.000000 -9.982595 7.195313 -3.694335 -28.441761 -9.090812 -3.008843 22.280647 -14.705567 -2.006594 0.000000 0.000000 0.000000 0.885168 -3.834286 -1.446045 29.249147 -1.109129 -4.409667 -13.721832 15.058990 -0.992976 0.000000 0.000000 0.000000 
0.002827 0.937937 -0.001601 -1.189980 4.051396 2.208314 6.945362 -0.173403 0.637480 -4.231267 0.415125 -1.532616 4.058796 10.632810 7.973722 0.000000 0.000000 0.000000 -2.523832 0.178102 -1.565733 3.619756 -0.410330 1.147081 -4.702963 -13.092067 9.214101 0.000000 0.000000 0.000000 -0.139939 -0.109550 2.777896 2.611864 0.050598 -24.116923 -2.595916 -2.917063 29.242257 -0.482270 1.694683 -24.772804 0.000000 0.000000 0.000000 -10.899271 7.070347 -3.748644 -28.995864 -9.032666 -3.121262 22.402415 -15.758197 -2.179434 0.000000 0.000000 0.000000 2.688698 -3.274595 -1.368791 30.098386 -1.033001 -4.567818 -14.800531 13.289022 -0.921288 0.000000 0.000000 0.000000 
0.006782 0.936481 -0.002425 -1.114505 4.318371 2.263459 6.577425 -0.182434 0.050477 -4.153849 0.407850 -0.710572 4.121787 10.551150 7.128094 0.000000 0.000000 0.000000 -2.638219 0.184436 -1.650571 3.249897 -0.365060 1.218160 -4.896704 -13.422124 8.875863 0.000000 0.000000 0.000000 -0.552723 -0.081005 2.446095 2.932825 -0.016535 -24.310115 -2.899987 -4.264930 30.005035 -1.542736 2.136237 -25.229820 0.000000 0.000000 0.000000 -12.392159 8.221748 -4.320375 -31.063647 -8.990780 -3.409810 22.313457 -18.003835 -2.375463 0.000000 0.000000 0.000000 3.125934 -2.782108 -1.250177 31.214856 -1.321736 -4.815570 -14.314876 14.269112 -1.013798 0.000000 0.000000 0.000000 
0.012546 0.935546 -0.003240 -1.076739 3.982071 1.956312 6.238675 -0.159430 0.142988 -4.384310 0.434415 -0.192757 4.379236 10.830879 6.505964 0.000000 0.000000 0.000000 -3.468206 0.186492 -1.652628 3.896376 -0.443895 1.723060 -4.742653 -13.117938 8.686178 0.000000 0.000000 0.000000 -0.640164 -0.096251 2.935701 3.484910 -0.159524 -24.210938 -3.470774 -3.750600 29.803462 -0.557616 1.604211 -25.191960 0.000000 0.000000 0.000000 -14.284448 7.876454 -4.432548 -32.094878 -8.905805 -3.510013 22.964648 -20.174070 -2.816544 0.000000 0.000000 0.000000 4.892198 -2.278793 -1.180546 32.765743 -1.379893 -5.073124 -14.867881 15.081469 -1.124255 0.000000 0.000000 0.000000 
0.019929 0.933959 -0.004235 -0.970843 4.588733 1.841604 5.274794 -0.153085 -0.267152 -3.663017 0.357341 0.586527 4.350125 10.520414 5.371181 0.000000 0.000000 0.000000 -4.319032 0.192391 -1.818520 4.415683 -0.522074 2.371186 -5.034744 -13.643588 8.509768 0.000000 0.000000 0.000000 -0.904114 -0.088060 2.985382 3.212854 -0.106612 -23.700378 -3.314954 -4.864675 29.962385 -0.417122 1.410687 -25.738927 0.000000 0.000000 0.000000 -16.255130 7.944261 -4.584170 -34.969005 -9.477597 -3.673094 23.496576 -22.807079 -3.189565 0.000000 0.000000 0.000000 6.555537 -1.679676 -1.121629 34.738624 -0.486589 -5.171652 -15.100491 15.663102 -1.218980 0.000000 0.000000 0.000000 
0.028245 0.932998 -0.005285 -1.015414 4.643207 1.908834 4.918231 -0.152357 -0.437158 -3.945147 0.384978 0.711179 4.451516 10.522699 4.673486 0.000000 0.000000 0.000000 -4.939484 0.226575 -2.423511 4.607035 -0.555134 3.288730 -5.086617 -13.744122 8.559386 0.000000 0.000000 0.000000 -0.835456 -0.106360 3.427456 3.351490 -0.164848 -23.135510 -3.418045 -4.452585 29.255369 0.152160 1.161771 -25.784889 0.000000 0.000000 0.000000 -18.915704 7.215812 -4.637322 -38.407359 -9.362440 -3.924628 23.926516 -26.567870 -3.838238 0.000000 0.000000 0.000000 9.515229 -1.516022 -1.268429 37.239552 -0.589320 -5.542024 -14.792668 18.041417 -1.365052 0.000000 0.000000 0.000000 
0.037428 0.932064 -0.006338 -1.189302 4.583228 2.051133 4.142758 -0.160156 -0.949494 -3.365383 0.321332 1.326849 4.698043 10.750654 3.819236 0.000000 0.000000 0.000000 -5.291926 0.263274 -3.098430 4.451332 -0.535675 4.138950 -5.090477 -13.764539 8.722004 0.000000 0.000000 0.000000 -1.147979 -0.103235 3.743116 3.885641 -0.310770 -22.910395 -3.290149 -4.458367 29.280405 0.311190 1.126070 -26.931947 0.000000 0.000000 0.000000 -21.728763 7.330638 -5.069773 -43.399608 -9.219063 -4.375460 22.425469 -30.291828 -3.883958 0.000000 0.000000 0.000000 11.897029 -0.860258 -1.175227 42.084900 0.092876 -6.068904 -14.782155 20.366435 -1.520707 0.000000 0.000000 0.000000 
0.047086 0.931910 -0.006964 -1.333490 4.877895 2.007153 3.721258 -0.172679 -1.298146 -3.450082 0.323310 1.969232 4.688842 10.580740 3.226932 0.000000 0.000000 0.000000 -5.467935 0.277206 -3.489633 3.934314 -0.461192 4.998179 -5.211644 -14.022143 9.242284 0.000000 0.000000 0.000000 -1.358221 -0.119461 4.522761 4.189168 -0.377985 -23.010072 -3.005313 -3.975070 29.109444 0.237057 1.315137 -27.445539 0.000000 0.000000 0.000000 -24.570282 6.426183 -5.141366 -48.234015 -9.751093 -4.448874 19.442428 -31.232450 -3.185802 0.000000 0.000000 0.000000 14.871424 -0.626442 -1.185104 47.703913 0.075951 -6.883675 -14.469080 22.149039 -1.501108 0.000000 0.000000 0.000000 
0.057059 0.931430 -0.007107 -1.380167 5.375866 2.054771 3.046928 -0.179692 -1.558049 -3.273925 0.295535 2.319833 4.603394 10.240722 2.573564 0.000000 0.000000 0.000000 -5.911010 0.304703 -4.365487 3.704263 -0.434642 6.688775 -5.447619 -14.476736 9.734451 0.000000 0.000000 0.000000 -1.601159 -0.120758 4.953233 4.169146 -0.399853 -22.312640 -2.589724 -4.022849 28.636792 0.694375 1.163638 -28.444031 0.000000 0.000000 0.000000 -26.286946 5.828941 -5.126749 -53.686772 -9.957509 -4.591797 16.435330 -31.916160 -2.361651 0.000000 0.000000 0.000000 17.101071 -0.221217 -1.105696 53.130254 -0.444830 -7.791980 -13.280143 23.718941 -1.329105 0.000000 0.000000 0.000000 
